<svg xmlns="http://www.w3.org/2000/svg" viewBox="0 0 64 64" fill="none">
  <rect width="64" height="64" rx="14" fill="#F5F3FF"/>
  <path
    d="M12 18C12 15.7909 13.7909 14 16 14H29C33.4183 14 37 17.5817 37 22V50H20C15.5817 50 12 46.4183 12 42V18Z"
    fill="#7C3AED"
  />
  <path
    d="M52 18C52 15.7909 50.2091 14 48 14H35C30.5817 14 27 17.5817 27 22V50H44C48.4183 50 52 46.4183 52 42V18Z"
    fill="#A78BFA"
  />
  <path d="M32 19V50" stroke="#FFFFFF" stroke-width="2.5" stroke-linecap="round"/>
  <path d="M18 24H27" stroke="#DDD6FE" stroke-width="2" stroke-linecap="round"/>
  <path d="M18 30H27" stroke="#DDD6FE" stroke-width="2" stroke-linecap="round"/>
  <path d="M37 24H46" stroke="#EDE9FE" stroke-width="2" stroke-linecap="round"/>
  <path d="M37 30H46" stroke="#EDE9FE" stroke-width="2" stroke-linecap="round"/>
</svg>
